<?xml version="1.0" encoding="utf-8"?>
<!-- Generator: Adobe Illustrator 24.2.0, SVG Export Plug-In . SVG Version: 6.00 Build 0)  -->
<svg version="1.1" id="Layer_1" xmlns="http://www.w3.org/2000/svg" xmlns:xlink="http://www.w3.org/1999/xlink" x="0px" y="0px"
	 viewBox="0 0 30 30" style="enable-background:new 0 0 30 30;" xml:space="preserve">
<style type="text/css">
	.st0{fill:none;stroke:#000000;stroke-width:1.7998;stroke-miterlimit:10;}
</style>
<path class="st0" d="M16.2,23.8c-1.2-1.3-3.1-4.3-3.5-5.1c-0.3-0.7-0.6-1.4-0.7-2.2c-0.1-0.6-0.1-1.2,0.2-1.8c0.2-0.5,0.6-1,1.1-1.3
	c1.1-0.7,2.8-0.7,3.8,0.2c0.5,0.4,0.8,1.1,0.9,1.8c0.1,0.9-0.1,1.8-0.4,2.6c-0.8,1.8-2.5,4.6-3.8,5.7c-0.5,0.6-1.1,1.2-1.7,1.7
	c-0.9,0.8-2,1.5-3.2,1.7c-1,0.2-2.1,0.1-3-0.3c-1.1-0.5-1.9-1.5-2.2-2.7c-0.2-0.8-0.2-1.7,0.1-2.6c0.2-0.7,0.5-1.3,0.8-2
	c2-4.4,4.2-8.8,6.4-13.2c0.3-0.6,0.7-1.3,1-1.9c0.3-0.5,0.6-1,1.1-1.4c0.5-0.4,1.2-0.6,1.8-0.6c0.7,0,1.3,0.2,1.8,0.7
	c0.5,0.4,0.8,1,1.2,1.6c0.7,1.3,1.4,2.6,2,3.9c1.9,3.7,3.7,7.5,5.5,11.4c0.3,0.6,0.5,1.2,0.7,1.8c0.2,0.8,0.2,1.6,0,2.4l0,0
	c-0.3,1.1-1,2-2,2.5c-0.9,0.5-1.9,0.6-2.8,0.5c-1.2-0.2-2.3-0.8-3.3-1.6C17.4,25.1,16.8,24.5,16.2,23.8"/>
</svg>
