<svg xmlns="http://www.w3.org/2000/svg" width="159.105" height="133.579" viewBox="0 0 159.105 133.579">
  <g id="Disco" transform="translate(4.6 2.3)">
    <g id="Ellipse_9" data-name="Ellipse 9" transform="translate(27 20.032)" fill="none" stroke="#242a40" stroke-width="4.6">
      <ellipse cx="47.5" cy="50" rx="47.5" ry="50" stroke="none"/>
      <ellipse cx="47.5" cy="50" rx="45.2" ry="47.7" fill="none"/>
    </g>
    <line id="Line_13" data-name="Line 13" y2="116.28" transform="translate(75.15)" fill="none" stroke="#242a40" stroke-linecap="round" stroke-width="4.6"/>
    <path id="Path_23" data-name="Path 23" d="M0,0C31.58,9,32.419,86.369,0,94.413" transform="translate(74.254 21.867)" fill="none" stroke="#242a40" stroke-width="4.6"/>
    <path id="Path_24" data-name="Path 24" d="M22.851,0c-30.067,8.933-30.866,85.724,0,93.708" transform="translate(52.309 22.572)" fill="none" stroke="#242a40" stroke-width="4.6"/>
    <line id="Line_14" data-name="Line 14" x2="91.872" transform="translate(27.882 69.127)" fill="none" stroke="#242a40" stroke-width="4.6"/>
    <line id="Line_15" data-name="Line 15" x2="77.892" transform="translate(35.871 93.815)" fill="none" stroke="#242a40" stroke-width="4.6"/>
    <line id="Line_16" data-name="Line 16" x2="77.892" transform="translate(35.871 44.439)" fill="none" stroke="#242a40" stroke-width="4.6"/>
    <path id="Path_25" data-name="Path 25" d="M6659.619,11252.856l13.882-14.709" transform="translate(-6547.109 -11227.815)" fill="none" stroke="#242a40" stroke-linecap="round" stroke-width="4.6"/>
    <path id="Path_26" data-name="Path 26" d="M0,14.406,13.722,0" transform="translate(130.308 30.659) rotate(17)" fill="none" stroke="#242a40" stroke-linecap="round" stroke-width="4.6"/>
    <path id="Path_27" data-name="Path 27" d="M0,13.882,13.882,0" transform="translate(140.089 59.363) rotate(45)" fill="none" stroke="#242a40" stroke-linecap="round" stroke-width="4.6"/>
    <path id="Path_28" data-name="Path 28" d="M0,0,13.722,14.406" transform="translate(126.096 93.922) rotate(-17)" fill="none" stroke="#242a40" stroke-linecap="round" stroke-width="4.6"/>
    <path id="Path_29" data-name="Path 29" d="M6659.619,11238.147l13.882,14.709" transform="translate(-6545.777 -11124.83)" fill="none" stroke="#242a40" stroke-linecap="round" stroke-width="4.6"/>
    <path id="Path_30" data-name="Path 30" d="M6673.5,11252.856l-13.882-14.709" transform="translate(-6636.106 -11227.815)" fill="none" stroke="#242a40" stroke-linecap="round" stroke-width="4.6"/>
    <path id="Path_31" data-name="Path 31" d="M0,0,13.722,14.406" transform="translate(23.808 44.435) rotate(163)" fill="none" stroke="#242a40" stroke-linecap="round" stroke-width="4.6"/>
    <path id="Path_32" data-name="Path 32" d="M0,0,13.882,13.882" transform="translate(19.632 69.179) rotate(135)" fill="none" stroke="#242a40" stroke-linecap="round" stroke-width="4.6"/>
    <path id="Path_33" data-name="Path 33" d="M0,14.406,13.722,0" transform="translate(19.597 107.699) rotate(-163)" fill="none" stroke="#242a40" stroke-linecap="round" stroke-width="4.6"/>
    <path id="Path_34" data-name="Path 34" d="M6673.5,11238.147l-13.882,14.709" transform="translate(-6637.438 -11124.83)" fill="none" stroke="#242a40" stroke-linecap="round" stroke-width="4.6"/>
    <rect id="Rectangle_23" data-name="Rectangle 23" width="25" height="6" rx="3" transform="translate(62 18.032)" fill="#242a40"/>
  </g>
</svg>
