<svg xmlns="http://www.w3.org/2000/svg" width="90.644" height="93" viewBox="0 0 90.644 93">
  <path id="Icon_awesome-arrow-down" data-name="Icon awesome-arrow-down" d="M84.97,41.791,89.578,46.4a4.961,4.961,0,0,1,0,7.036L49.248,93.787a4.961,4.961,0,0,1-7.036,0L1.861,53.436a4.961,4.961,0,0,1,0-7.036l4.608-4.608a4.987,4.987,0,0,1,7.12.083L37.417,66.886V7.232A4.97,4.97,0,0,1,42.4,2.25H49.04a4.97,4.97,0,0,1,4.982,4.982V66.886L77.851,41.874a4.951,4.951,0,0,1,7.12-.083Z" transform="translate(-0.397 -2.25)" fill="#a3a3a3"/>
</svg>
