<svg xmlns="http://www.w3.org/2000/svg" width="120.527" height="155.946" viewBox="0 0 120.527 155.946">
  <path id="Icon_awesome-cross" data-name="Icon awesome-cross" d="M105.9,37.736H77.018V9.434A9.533,9.533,0,0,0,67.391,0H48.136a9.533,9.533,0,0,0-9.627,9.434v28.3H9.627A9.533,9.533,0,0,0,0,47.171V66.039a9.533,9.533,0,0,0,9.627,9.434H38.509v66.039a9.533,9.533,0,0,0,9.627,9.434H67.391a9.533,9.533,0,0,0,9.627-9.434V75.473H105.9a9.533,9.533,0,0,0,9.627-9.434V47.171A9.533,9.533,0,0,0,105.9,37.736Z" transform="translate(2.5 2.5)" fill="none" stroke="#242a40" stroke-width="5"/>
</svg>
