<svg xmlns="http://www.w3.org/2000/svg" width="192.595" height="128.397" viewBox="0 0 192.595 128.397">
  <path id="Icon_awesome-inbox" data-name="Icon awesome-inbox" d="M189.9,64.655,154.561,11.647A16.051,16.051,0,0,0,141.206,4.5H51.388a16.05,16.05,0,0,0-13.354,7.147L2.7,64.655a16.048,16.048,0,0,0-2.7,8.9v43.289A16.049,16.049,0,0,0,16.05,132.9h160.5a16.049,16.049,0,0,0,16.05-16.05V73.558a16.048,16.048,0,0,0-2.7-8.9ZM54.252,25.9h84.092l28.532,42.8H125.722l-10.7,21.4H77.573l-10.7-21.4H25.719L54.252,25.9Z" transform="translate(0 -4.5)" fill="#171a26"/>
</svg>
