<svg xmlns="http://www.w3.org/2000/svg" width="118.851" height="76.75" viewBox="0 0 118.851 76.75">
  <g id="noun_Food_2882419" transform="translate(1.75 -0.178)">
    <g id="Path_35" data-name="Path 35" transform="translate(11.946 11.37)" fill="none">
      <path d="M45.967,0C71.353,0,91.933,21.322,91.933,47.623H0C0,21.322,20.58,0,45.967,0Z" stroke="none"/>
      <path d="M 45.96673583984375 3.499996185302734 C 40.24778366088867 3.499996185302734 34.70058059692383 4.660137176513672 29.47918319702148 6.948196411132812 C 24.42573547363281 9.16265869140625 19.88450622558594 12.33572006225586 15.98162841796875 16.37925910949707 C 12.07039642333984 20.43144416809082 8.998970031738281 25.15176582336426 6.8526611328125 30.40910530090332 C 5.065216064453125 34.78739166259766 3.985763549804688 39.38636779785156 3.630500793457031 44.12338256835938 L 88.30297088623047 44.12338256835938 C 87.94770812988281 39.38636779785156 86.86825561523438 34.78739166259766 85.080810546875 30.40910530090332 C 82.93450927734375 25.15176582336426 79.86307525634766 20.43144416809082 75.95184326171875 16.37925910949707 C 72.04896545410156 12.33572006225586 67.50773620605469 9.16265869140625 62.45429229736328 6.948196411132812 C 57.23289108276367 4.660137176513672 51.68568801879883 3.499996185302734 45.96673583984375 3.499996185302734 M 45.96673583984375 -3.814697265625e-06 C 71.35345458984375 -3.814697265625e-06 91.9334716796875 21.32172012329102 91.9334716796875 47.62338256835938 L 0 47.62338256835938 C 0 21.32172012329102 20.58000946044922 -3.814697265625e-06 45.96673583984375 -3.814697265625e-06 Z" stroke="none" fill="#242a40"/>
    </g>
    <path id="Path_36" data-name="Path 36" d="M-136.052-55c.405-11.467,13.867-19.086,17.7-19.3" transform="translate(165.071 100.985)" fill="none" stroke="#242a40" stroke-linecap="round" stroke-width="3.5"/>
    <path id="Path_37" data-name="Path 37" d="M-190.312-22.788H-74.961" transform="translate(190.312 80.483)" fill="none" stroke="#242a40" stroke-linecap="round" stroke-width="3.5"/>
    <path id="Path_38" data-name="Path 38" d="M-164.825-5.288l77.794-.044,10.667-17.416-98.931.136Z" transform="translate(183.87 80.466)" fill="none" stroke="#242a40" stroke-linecap="round" stroke-linejoin="round" stroke-width="3.5"/>
    <g id="Ellipse_10" data-name="Ellipse 10" transform="translate(51.045 0.178)" fill="none" stroke="#242a40" stroke-width="3.5">
      <ellipse cx="7" cy="6.5" rx="7" ry="6.5" stroke="none"/>
      <ellipse cx="7" cy="6.5" rx="5.25" ry="4.75" fill="none"/>
    </g>
  </g>
</svg>
