<svg xmlns="http://www.w3.org/2000/svg" width="48.127" height="99.932" viewBox="0 0 48.127 99.932">
  <g id="noun_Suitcase_1429467" transform="translate(0.501 1.5)">
    <path id="Path_45" data-name="Path 45" d="M329.447,17.08c-.014-.024-.021-10.086,0-16.894.009-2.816,0-5.121,0-5.691a7.9,7.9,0,0,1,.217-2.157,6.176,6.176,0,0,1,5.806-4.628c3.826.008,5.7.02,8.053.022.618,0,1.353,0,2.193,0a6.126,6.126,0,0,1,5.826,4.47,13.3,13.3,0,0,1-2.835.135c-3.358.036-19.043,0-19.043,0h21.878s.231.066.263,1.633,0,23.11,0,23.11S329.467,17.115,329.447,17.08Z" transform="translate(-317.062 12.29)" fill="none" stroke="#1e212c" stroke-linecap="round" stroke-linejoin="round" stroke-width="3"/>
    <path id="Path_46" data-name="Path 46" d="M294.677,96.09c-2.46,0-7.547,1.865-7.547,8.243s.005,43.574.005,47.346,3.439,7.495,7.22,7.495l30.229,0a7.706,7.706,0,0,0,7.648-7.561c0-3.437,0-40.884,0-47.3a7.81,7.81,0,0,0-7.887-8.253C321.578,96.062,297.137,96.09,294.677,96.09Z" transform="translate(-286.11 -66.696)" fill="none" stroke="#1e212c" stroke-width="3"/>
    <path id="Path_47" data-name="Path 47" d="M286.854,107.358c11.341.511,10.124-10.8,8.723-11.057" transform="translate(-285.908 -66.871)" fill="none" stroke="#1e212c" stroke-width="3"/>
    <path id="Path_48" data-name="Path 48" d="M420.646,95.582c-2.022,3.1-.013,11.609,8.481,10.942" transform="translate(-383.344 -66.076)" fill="none" stroke="#1e212c" stroke-width="3"/>
    <path id="Path_49" data-name="Path 49" d="M.6,0S.317.034.319.03C-1.386,6.278,4,11.535,10.336,10.024" transform="matrix(-0.995, -0.105, 0.105, -0.995, 10.279, 92.486)" fill="none" stroke="#1e212c" stroke-width="3"/>
    <path id="Path_50" data-name="Path 50" d="M1.168,12.185C-1.635,7.326.576.154,8.123,0" transform="translate(38.016 80.319) rotate(9)" fill="none" stroke="#1e212c" stroke-width="3"/>
    <path id="Path_51" data-name="Path 51" d="M6.825,7.307a2.812,2.812,0,0,1-2.8,2.91,2.9,2.9,0,0,1-2.853-3v-1.5l5.657.07Z" transform="translate(6.068 86.714)" fill="none" stroke="#1e212c" stroke-width="3"/>
    <path id="Path_52" data-name="Path 52" d="M6.825,7.307a2.812,2.812,0,0,1-2.8,2.91,2.9,2.9,0,0,1-2.853-3v-1.5l5.657.07Z" transform="translate(33.047 86.714)" fill="none" stroke="#1e212c" stroke-width="3"/>
  </g>
</svg>
