<svg xmlns="http://www.w3.org/2000/svg" width="72.267" height="117.701" viewBox="0 0 72.267 117.701">
  <g id="noun_Champagne_936670" transform="translate(-1.112 1.907)">
    <g id="Glass" transform="translate(43.304 1.092)">
      <path id="Path_39" data-name="Path 39" d="M101.706,6.578c-.9,7.075-1.36,14.491-1.6,21.267-.522,14.69.594,27.413,4.012,36.772,2.579,6.425,5.3,11.089,10.011,11.591,4.173-.051,6.9-4.621,9.893-11.4,3.27-9.26,4.871-23.026,4.037-37.787a161.931,161.931,0,0,0-1.727-20.44Z" transform="translate(-99.983 -6.578)" fill="none" stroke="#242a40" stroke-width="3.5"/>
      <path id="Path_40" data-name="Path 40" d="M99.983,53.795c5.119,2.963,9.687,1.871,13.329-1.505,4.631-4.227,10.079-3.665,14.335.239" transform="translate(-99.983 -26.074)" fill="none" stroke="#242a40" stroke-width="3.5"/>
      <path id="Path_41" data-name="Path 41" d="M116.42,134.584l.059,41.683,11.963.013-23.524-.025" transform="translate(-102.432 -64.377)" fill="none" stroke="#242a40" stroke-linecap="round" stroke-linejoin="round" stroke-width="3.5"/>
    </g>
    <g id="Glass-2" data-name="Glass" transform="matrix(0.996, 0.087, -0.087, 0.996, 9.762, 0)">
      <path id="Path_39-2" data-name="Path 39" d="M1.548,0C.695,7.064.28,14.473.083,21.244c-.427,14.678.771,27.4,4.252,36.779,2.622,6.44,5.374,11.12,10.092,11.654,4.175-.022,6.87-4.57,9.825-11.327,3.212-9.232,4.726-22.979,3.8-37.738A162.211,162.211,0,0,0,26.187.172Z" fill="none" stroke="#242a40" stroke-width="3.5"/>
      <path id="Path_40-2" data-name="Path 40" d="M0,4.3c5.141,3,9.7,1.938,13.328-1.411,4.607-4.193,10.062-3.593,14.345.339" transform="translate(0.002 23.394)" fill="none" stroke="#242a40" stroke-width="3.5"/>
      <path id="Path_41-2" data-name="Path 41" d="M11.24,0l.328,41.66,11.97.1L0,41.567" transform="translate(3.033 70.253)" fill="none" stroke="#242a40" stroke-linecap="round" stroke-linejoin="round" stroke-width="3.5"/>
    </g>
  </g>
</svg>
