<svg xmlns="http://www.w3.org/2000/svg" xmlns:xlink="http://www.w3.org/1999/xlink" version="1.1" id="Layer_1" width="300" height="124.667" viewBox="0 0 300 100.667" overflow="visible" enable-background="new 0 0 300 124.667" xml:space="preserve">
  <path id="Bed_Bath__x26__Beyond" fill-rule="evenodd" clip-rule="evenodd" d="M4.654,59.215h15.787  c7.191,0,14.556,1.57,14.556,9.375c0,2.97-1.633,5.895-4.883,6.831v0.28c4.037,1.289,6.609,3.99,6.609,8.027  c0,6.966-7.106,9.346-13.622,9.346H4.654V59.215 M18.452,72.239c1.99,0,4.21-0.176,4.21-2.515c0-2.525-2.543-2.345-4.502-2.345  h-0.932v4.86H18.452z M17.228,84.991h1.517c2.223,0,5.439-0.047,5.439-2.831c0-2.826-3.447-2.774-5.644-2.774h-1.312V84.991z   M38.886,59.215v33.859h27.771v-9.248H53.765v-3.328h11.37V71.69h-11.37v-3.229h12.454v-9.246H38.886 M85.425,59.215H66.628  l15.927,19.26v14.599h16.258V78.475l15.634-19.26H95.773l-3.276,5.654c-0.585,1.04-1.02,2.117-1.491,3.188H90.51L85.425,59.215   M161.458,76.234c0,10.874-12.193,17.371-27.16,17.371c-14.995,0-27.154-6.498-27.154-17.371c0-10.65,12.247-17.565,27.154-17.565  C149.208,58.669,161.458,65.583,161.458,76.234 M125.122,76.41c0,3.866,3.77,6.51,9.175,6.51c5.411,0,9.181-2.645,9.181-6.51  c0-3.586-3.509-6.593-9.181-6.593C128.625,69.817,125.122,72.824,125.122,76.41z M219.338,59.215h28.18  c25.576,0,45.159,4.981,45.159,17.422c0,10.053-15.961,16.437-38.292,16.437h-35.047V59.215 M247.021,82.92h1.721  c9.181,0,16.253-1.884,16.253-6.329c0-4.751-6.166-6.774-16.253-6.774h-1.721V82.92z M286.687,59.583  c0-2.507,1.984-4.515,4.528-4.515c2.543,0,4.536,2.008,4.536,4.515c0,2.51-1.993,4.505-4.536,4.505  C288.671,64.088,286.687,62.093,286.687,59.583 M295.05,59.583c0-2.125-1.755-3.812-3.835-3.812c-2.073,0-3.827,1.687-3.827,3.812  c0,2.13,1.754,3.814,3.827,3.814C293.295,63.397,295.05,61.712,295.05,59.583z M293.35,62.018h-0.815l-1.49-2.267h-0.82v2.267  h-0.701v-4.927h2.16c0.878,0,1.755,0.233,1.755,1.304c0,0.96-0.673,1.33-1.55,1.356L293.35,62.018z M291.044,59.047  c0.613,0,1.694,0.125,1.694-0.667c0-0.51-0.673-0.603-1.197-0.603h-1.317v1.271H291.044z M181.978,59.238h-18.331v33.857h18.243  V75.867l16.165,17.229h18.212V59.238h-18.212v17.539L181.978,59.238 M4.566,4.716h5.499c8.42,0,16.398,2.211,16.398,12.312  c0,3.267-1.783,7.071-4.823,8.51v0.118c5.292,0.952,8.977,6.12,8.977,11.35c0,8.985-7.662,12.548-15.585,12.548H4.566V4.716   M10.182,24.585h1.402c5.317,0,9.647-1.081,9.647-7.499c0-6.298-4.296-7.367-9.504-7.367h-1.545V24.585z M10.182,44.56h4.264  c5.175,0,10.581-1.541,10.581-7.913c0-6.297-6.428-7.604-11.396-7.604h-3.449V44.56z M33.887,4.716v44.837h24.086v-5.109H39.471  V27.497H57.45v-5.124H39.471V9.825h18.501V4.716H33.887 M63.208,4.716h9.264c13.743,0,25.172,7.261,25.172,22.188  c0,15.28-11.199,22.649-25.343,22.649h-9.093V4.716 M68.792,44.444h1.959c11.43,0,21.312-4.293,21.312-17.304  c0-13.084-9.882-17.315-21.312-17.315h-1.959V44.444z M113.366,4.716h5.468c8.451,0,16.429,2.211,16.429,12.312  c0,3.267-1.783,7.071-4.821,8.51v0.118c5.289,0.952,8.974,6.12,8.974,11.35c0,8.985-7.662,12.548-15.583,12.548h-10.467V4.716   M118.956,24.585h1.428c5.292,0,9.649-1.081,9.649-7.499c0-6.298-4.298-7.367-9.533-7.367h-1.545V24.585z M118.956,44.56h4.293  c5.175,0,10.586-1.541,10.586-7.913c0-6.297-6.433-7.604-11.432-7.604h-3.447V44.56z M150.229,38.313l-5.113,11.239h-5.993  l21.395-46.738l21.4,46.738h-5.99l-5.116-11.239H150.229 M160.518,15.067l-7.978,18.132h15.96L160.518,15.067z M191.798,49.553  V9.825h10.643V4.716h-26.867v5.109h10.643v39.728H191.798 M232.4,22.792h-21.338V4.716h-5.584v44.837h5.584V28.032H232.4v21.521  h5.584V4.716H232.4V22.792 M279.757,43.493c-3.388,3.981-8.126,7.013-13.417,7.013c-7.512,0-13.735-5.468-13.735-13.204  c0-5.705,3.563-8.794,7.833-11.885l2.802-2.02c-2.543-2.687-4.937-6.014-4.937-9.815c0-6.193,4.474-9.817,10.348-9.817  c5.468,0,10.346,3.448,10.346,9.341c0,5.05-4.381,8.437-8.154,11.171l9.357,11.298l5.229-6.058l3.568,3.683l-5.468,6.433  l8.012,9.921h-6.901L279.757,43.493 M265.993,27.795c-3.101,2.139-8.159,5.172-8.159,9.446c0,4.293,4.031,8.275,8.33,8.275  c4.152,0,7.485-3.152,10.288-5.959l-9.937-12.119L265.993,27.795z M268.415,19.938c2.251-1.782,5.351-3.624,5.351-6.891  c0-3.149-2.251-4.885-5.229-4.885c-2.665,0-5.004,1.915-5.004,4.767c0,2.257,1.374,3.921,2.69,5.585l1.491,1.901L268.415,19.938z"/>
</svg>